<svg version="1.1" id="svg1" viewBox="0 0 100 200" xmlns="http://www.w3.org/2000/svg"
    xmlns:svg="http://www.w3.org/2000/svg">

    <defs>
        <path id="kreis"
            d="M 2.8052873,49.81442 C 2.3444673,75.51201 24.018458,97.85238 51.183,97.18746 76.433401,96.57012 97.496393,75.58382 97.198823,49.40316 96.905913,23.56476 75.310291,1.97976 48.41813,2.82186 23.040868,3.61733 2.6187273,24.73419 2.8052873,49.81442"
            fill="none" stroke-width="6" stroke="#ebbd27" stroke-opacity="0.4" stroke-linecap="round"
            image-rendering="optimizeQuality" shape-rendering="geometricPrecision" />

        <path id="achteck"
            d="m 2.8926849,53.895211 c 0.21684,0.57628 0.43077,1.2294 0.70471,1.85658 1.81598,4.15593 3.64648,8.30514 5.47021,12.45724 2.3183701,5.27775 4.6987001,10.53054 6.9125301,15.85152 0.63889,1.53674 1.59044,2.21963 3.14312,2.62495 8.15352,2.12839 16.28381,4.35091 24.42088,6.54173 4.55447,1.22651 9.1254,2.39828 13.65277,3.71508 1.46943,0.42837 2.58651,0.30255 3.86622,-0.59261 8.47683,-5.93183 16.99626,-11.80316 25.53796,-17.64279 1.10352,-0.75396 1.69401,-1.66352 2.027,-2.91597 1.63981,-6.15946 3.34156,-12.3026 5.01621,-18.45342 1.10934,-4.07622 2.18867,-8.16108 3.33091,-12.22769 0.28557,-1.01905 0.22749,-1.87867 -0.27297,-2.84394 -4.66289,-9.01684 -9.30352,-18.04618 -13.87638,-27.10817 -0.63889,-1.26589 -1.60689,-1.72884 -2.83239,-2.06692 -9.46323,-2.61727 -18.92066,-5.25375 -28.38196,-7.88158 -2.53327,-0.70402 -5.08978,-1.33313 -7.59595,-2.11879 -1.43555,-0.45046 -2.59135,-0.32656 -3.91462,0.486 -7.37137,4.52667 -14.80373,8.95346 -22.21673,13.4129 -1.25744,0.75684 -2.48487,1.57132 -3.78297,2.25037 -1.05125,0.54938 -1.5401,1.35425 -1.85954,2.46455 -2.08121,7.23327 -4.2311601,14.44732 -6.3530301,21.66906 -0.86636,2.94767 -1.72014,5.90014 -2.57296,8.85165 -0.1481,0.51385 -0.2633,1.0373 -0.42302,1.67025"
            fill="none" stroke-width="6" stroke="#9e4f5b" stroke-opacity="0.4" stroke-linecap="round"
            image-rendering="optimizeQuality" shape-rendering="geometricPrecision" />
        <path id="quadrat"
            d="M 2.7877049,78.150282 76.341945,97.212362 97.212365,22.757532 23.245875,2.787642 2.7877049,78.150282"
            fill="none" stroke-width="6" stroke="#afc9ba" stroke-opacity="0.4" stroke-linecap="round"
            image-rendering="optimizeQuality" shape-rendering="geometricPrecision" />
        <path id="dreieck"
            d="m 28.537824,2.4851749 c -0.1742,0.14161 -17.46517,63.3466801 -26.0527197,95.0237301 0.88101,0.0601 94.5447597,-24.45822 95.0298597,-24.62618 -0.21838,-0.32027 -68.64958,-70.1168001 -68.97714,-70.3975501"
            fill="none" stroke="#758d76" stroke-opacity="0.4" stroke-width="6" stroke-linecap="round"
            image-rendering="optimizeQuality" shape-rendering="geometricPrecision" />
    </defs>

    <use href="#kreis" x="-20" y="10" transform="scale(0.75 0.75)" />
    <use href="#quadrat" x="230" y="300" transform="scale(0.3 0.3)" />
    <use href="#achteck" x="10" y="450" transform="scale(0.3 0.3)" />
    <use href="#dreieck" x="240" y="470" transform="scale(0.35 0.35)" />
</svg>
